<mxfile host="Electron" modified="2024-12-03T11:29:06.691Z" agent="Mozilla/5.0 (Windows NT 10.0; Win64; x64) AppleWebKit/537.36 (KHTML, like Gecko) draw.io/24.1.0 Chrome/120.0.6099.109 Electron/28.1.0 Safari/537.36" etag="2TcXdPwz9AG9iQS5gEcu" version="24.1.0" type="device">
  <diagram name="Страница — 1" id="RGoa7yPOTrBoMWeDNAP6">
    <mxGraphModel dx="3667" dy="2822" grid="1" gridSize="10" guides="1" tooltips="1" connect="1" arrows="1" fold="1" page="1" pageScale="1" pageWidth="827" pageHeight="1169" math="0" shadow="0">
      <root>
        <mxCell id="0" />
        <mxCell id="1" parent="0" />
        <mxCell id="HeYIOjHRtYzObJNVk6Ek-6" style="rounded=0;orthogonalLoop=1;jettySize=auto;html=1;entryX=0.5;entryY=1;entryDx=0;entryDy=0;endArrow=open;endFill=0;" parent="1" source="XNh-5hUBTrXLjq72H-WG-1" target="HeYIOjHRtYzObJNVk6Ek-28" edge="1">
          <mxGeometry relative="1" as="geometry" />
        </mxCell>
        <mxCell id="XNh-5hUBTrXLjq72H-WG-1" value="Поддержка" style="shape=umlActor;verticalLabelPosition=bottom;verticalAlign=top;html=1;" parent="1" vertex="1">
          <mxGeometry x="1000" y="50" width="30" height="60" as="geometry" />
        </mxCell>
        <mxCell id="HeYIOjHRtYzObJNVk6Ek-24" style="rounded=0;orthogonalLoop=1;jettySize=auto;html=1;entryX=0;entryY=0.5;entryDx=0;entryDy=0;endArrow=open;endFill=0;" parent="1" source="XNh-5hUBTrXLjq72H-WG-2" target="XNh-5hUBTrXLjq72H-WG-12" edge="1">
          <mxGeometry relative="1" as="geometry" />
        </mxCell>
        <mxCell id="HeYIOjHRtYzObJNVk6Ek-25" style="rounded=0;orthogonalLoop=1;jettySize=auto;html=1;entryX=0;entryY=0.5;entryDx=0;entryDy=0;endArrow=open;endFill=0;" parent="1" source="XNh-5hUBTrXLjq72H-WG-2" target="XNh-5hUBTrXLjq72H-WG-13" edge="1">
          <mxGeometry relative="1" as="geometry" />
        </mxCell>
        <mxCell id="HeYIOjHRtYzObJNVk6Ek-26" style="rounded=0;orthogonalLoop=1;jettySize=auto;html=1;entryX=0;entryY=0.5;entryDx=0;entryDy=0;endArrow=open;endFill=0;" parent="1" source="XNh-5hUBTrXLjq72H-WG-2" target="kZnsoWwv7os6p9Z4obid-5" edge="1">
          <mxGeometry relative="1" as="geometry" />
        </mxCell>
        <mxCell id="HeYIOjHRtYzObJNVk6Ek-37" style="rounded=0;orthogonalLoop=1;jettySize=auto;html=1;entryX=0;entryY=0.5;entryDx=0;entryDy=0;endArrow=open;endFill=0;" parent="1" source="XNh-5hUBTrXLjq72H-WG-2" target="kZnsoWwv7os6p9Z4obid-3" edge="1">
          <mxGeometry relative="1" as="geometry" />
        </mxCell>
        <mxCell id="XNh-5hUBTrXLjq72H-WG-2" value="Пользователь" style="shape=umlActor;verticalLabelPosition=bottom;verticalAlign=top;html=1;" parent="1" vertex="1">
          <mxGeometry x="-220" y="80" width="30" height="60" as="geometry" />
        </mxCell>
        <mxCell id="HeYIOjHRtYzObJNVk6Ek-36" style="rounded=0;orthogonalLoop=1;jettySize=auto;html=1;entryX=1;entryY=0.5;entryDx=0;entryDy=0;endArrow=open;endFill=0;" parent="1" source="XNh-5hUBTrXLjq72H-WG-3" target="HeYIOjHRtYzObJNVk6Ek-29" edge="1">
          <mxGeometry relative="1" as="geometry" />
        </mxCell>
        <mxCell id="XNh-5hUBTrXLjq72H-WG-3" value="ИИ" style="shape=umlActor;verticalLabelPosition=bottom;verticalAlign=top;html=1;" parent="1" vertex="1">
          <mxGeometry x="1000" y="-215" width="30" height="60" as="geometry" />
        </mxCell>
        <mxCell id="HeYIOjHRtYzObJNVk6Ek-32" style="rounded=0;orthogonalLoop=1;jettySize=auto;html=1;entryX=0;entryY=0.5;entryDx=0;entryDy=0;endArrow=open;endFill=0;" parent="1" source="XNh-5hUBTrXLjq72H-WG-4" target="HeYIOjHRtYzObJNVk6Ek-28" edge="1">
          <mxGeometry relative="1" as="geometry" />
        </mxCell>
        <mxCell id="HeYIOjHRtYzObJNVk6Ek-35" style="rounded=0;orthogonalLoop=1;jettySize=auto;html=1;entryX=0;entryY=0.5;entryDx=0;entryDy=0;endArrow=open;endFill=0;" parent="1" source="XNh-5hUBTrXLjq72H-WG-4" target="HeYIOjHRtYzObJNVk6Ek-29" edge="1">
          <mxGeometry relative="1" as="geometry" />
        </mxCell>
        <mxCell id="XNh-5hUBTrXLjq72H-WG-4" value="Получение помощи" style="ellipse;whiteSpace=wrap;html=1;" parent="1" vertex="1">
          <mxGeometry x="330" y="-280" width="140" height="70" as="geometry" />
        </mxCell>
        <mxCell id="HeYIOjHRtYzObJNVk6Ek-39" style="rounded=0;orthogonalLoop=1;jettySize=auto;html=1;entryX=1;entryY=0.5;entryDx=0;entryDy=0;endArrow=open;endFill=0;" parent="1" source="XNh-5hUBTrXLjq72H-WG-5" target="kZnsoWwv7os6p9Z4obid-3" edge="1">
          <mxGeometry relative="1" as="geometry" />
        </mxCell>
        <mxCell id="XNh-5hUBTrXLjq72H-WG-5" value="Представитель" style="shape=umlActor;verticalLabelPosition=bottom;verticalAlign=top;html=1;" parent="1" vertex="1">
          <mxGeometry x="1000" y="280" width="30" height="60" as="geometry" />
        </mxCell>
        <mxCell id="XNh-5hUBTrXLjq72H-WG-10" style="edgeStyle=orthogonalEdgeStyle;rounded=0;orthogonalLoop=1;jettySize=auto;html=1;endArrow=block;endFill=0;" parent="1" source="XNh-5hUBTrXLjq72H-WG-7" target="XNh-5hUBTrXLjq72H-WG-2" edge="1">
          <mxGeometry relative="1" as="geometry" />
        </mxCell>
        <mxCell id="HeYIOjHRtYzObJNVk6Ek-4" style="rounded=0;orthogonalLoop=1;jettySize=auto;html=1;entryX=0;entryY=0.5;entryDx=0;entryDy=0;endArrow=open;endFill=0;" parent="1" source="XNh-5hUBTrXLjq72H-WG-7" target="XNh-5hUBTrXLjq72H-WG-4" edge="1">
          <mxGeometry relative="1" as="geometry" />
        </mxCell>
        <mxCell id="HeYIOjHRtYzObJNVk6Ek-13" style="rounded=0;orthogonalLoop=1;jettySize=auto;html=1;entryX=0;entryY=0.5;entryDx=0;entryDy=0;endArrow=open;endFill=0;" parent="1" source="XNh-5hUBTrXLjq72H-WG-7" target="XNh-5hUBTrXLjq72H-WG-11" edge="1">
          <mxGeometry relative="1" as="geometry" />
        </mxCell>
        <mxCell id="HeYIOjHRtYzObJNVk6Ek-27" style="rounded=0;orthogonalLoop=1;jettySize=auto;html=1;entryX=0;entryY=0.5;entryDx=0;entryDy=0;endArrow=open;endFill=0;" parent="1" source="XNh-5hUBTrXLjq72H-WG-7" target="kZnsoWwv7os6p9Z4obid-10" edge="1">
          <mxGeometry relative="1" as="geometry" />
        </mxCell>
        <mxCell id="XNh-5hUBTrXLjq72H-WG-7" value="Авторизованный пользователь" style="shape=umlActor;verticalLabelPosition=bottom;verticalAlign=top;html=1;" parent="1" vertex="1">
          <mxGeometry x="-220" y="205" width="30" height="60" as="geometry" />
        </mxCell>
        <mxCell id="XNh-5hUBTrXLjq72H-WG-9" style="edgeStyle=orthogonalEdgeStyle;rounded=0;orthogonalLoop=1;jettySize=auto;html=1;endArrow=block;endFill=0;" parent="1" source="XNh-5hUBTrXLjq72H-WG-8" target="XNh-5hUBTrXLjq72H-WG-2" edge="1">
          <mxGeometry relative="1" as="geometry" />
        </mxCell>
        <mxCell id="HeYIOjHRtYzObJNVk6Ek-7" style="rounded=0;orthogonalLoop=1;jettySize=auto;html=1;entryX=0;entryY=0.5;entryDx=0;entryDy=0;endArrow=open;endFill=0;" parent="1" source="XNh-5hUBTrXLjq72H-WG-8" target="XNh-5hUBTrXLjq72H-WG-14" edge="1">
          <mxGeometry relative="1" as="geometry" />
        </mxCell>
        <mxCell id="HeYIOjHRtYzObJNVk6Ek-15" style="rounded=0;orthogonalLoop=1;jettySize=auto;html=1;entryX=0;entryY=0.5;entryDx=0;entryDy=0;endArrow=open;endFill=0;" parent="1" source="XNh-5hUBTrXLjq72H-WG-8" target="kZnsoWwv7os6p9Z4obid-2" edge="1">
          <mxGeometry relative="1" as="geometry" />
        </mxCell>
        <mxCell id="XNh-5hUBTrXLjq72H-WG-8" value="Неавторизованный пользователь" style="shape=umlActor;verticalLabelPosition=bottom;verticalAlign=top;html=1;" parent="1" vertex="1">
          <mxGeometry x="-220" y="-50" width="30" height="60" as="geometry" />
        </mxCell>
        <mxCell id="XNh-5hUBTrXLjq72H-WG-11" value="Активирование промокода" style="ellipse;whiteSpace=wrap;html=1;" parent="1" vertex="1">
          <mxGeometry x="20" y="310" width="140" height="70" as="geometry" />
        </mxCell>
        <mxCell id="XNh-5hUBTrXLjq72H-WG-12" value="Посмотреть главную страницу" style="ellipse;whiteSpace=wrap;html=1;" parent="1" vertex="1">
          <mxGeometry x="290" y="20" width="140" height="70" as="geometry" />
        </mxCell>
        <mxCell id="XNh-5hUBTrXLjq72H-WG-13" value="Посмотреть новости" style="ellipse;whiteSpace=wrap;html=1;" parent="1" vertex="1">
          <mxGeometry x="290" y="100" width="140" height="70" as="geometry" />
        </mxCell>
        <mxCell id="XNh-5hUBTrXLjq72H-WG-14" value="Авторизоваться" style="ellipse;whiteSpace=wrap;html=1;" parent="1" vertex="1">
          <mxGeometry x="490" y="-40" width="140" height="70" as="geometry" />
        </mxCell>
        <mxCell id="HeYIOjHRtYzObJNVk6Ek-21" style="rounded=0;orthogonalLoop=1;jettySize=auto;html=1;entryX=0.5;entryY=1;entryDx=0;entryDy=0;endArrow=open;endFill=0;startArrow=none;startFill=0;" parent="1" source="kZnsoWwv7os6p9Z4obid-2" target="HeYIOjHRtYzObJNVk6Ek-17" edge="1">
          <mxGeometry relative="1" as="geometry" />
        </mxCell>
        <mxCell id="kZnsoWwv7os6p9Z4obid-2" value="Зарегистрироваться" style="ellipse;whiteSpace=wrap;html=1;" parent="1" vertex="1">
          <mxGeometry x="40" y="-300" width="140" height="70" as="geometry" />
        </mxCell>
        <mxCell id="kZnsoWwv7os6p9Z4obid-3" value="Связаться с представителями" style="ellipse;whiteSpace=wrap;html=1;" parent="1" vertex="1">
          <mxGeometry x="290" y="270" width="140" height="70" as="geometry" />
        </mxCell>
        <mxCell id="kZnsoWwv7os6p9Z4obid-5" value="Посмотреть страницу игр" style="ellipse;whiteSpace=wrap;html=1;" parent="1" vertex="1">
          <mxGeometry x="290" y="180" width="140" height="70" as="geometry" />
        </mxCell>
        <mxCell id="kZnsoWwv7os6p9Z4obid-7" style="edgeStyle=orthogonalEdgeStyle;rounded=0;orthogonalLoop=1;jettySize=auto;html=1;exitX=0.5;exitY=1;exitDx=0;exitDy=0;entryX=0.5;entryY=0;entryDx=0;entryDy=0;endArrow=open;endFill=0;" parent="1" source="kZnsoWwv7os6p9Z4obid-6" target="XNh-5hUBTrXLjq72H-WG-4" edge="1">
          <mxGeometry relative="1" as="geometry" />
        </mxCell>
        <mxCell id="kZnsoWwv7os6p9Z4obid-6" value="Изучить FAQ" style="ellipse;whiteSpace=wrap;html=1;" parent="1" vertex="1">
          <mxGeometry x="330" y="-410" width="140" height="70" as="geometry" />
        </mxCell>
        <mxCell id="kZnsoWwv7os6p9Z4obid-9" style="edgeStyle=orthogonalEdgeStyle;rounded=0;orthogonalLoop=1;jettySize=auto;html=1;exitX=0.5;exitY=0;exitDx=0;exitDy=0;entryX=0.5;entryY=1;entryDx=0;entryDy=0;endArrow=none;endFill=0;startArrow=open;startFill=0;" parent="1" source="kZnsoWwv7os6p9Z4obid-8" target="XNh-5hUBTrXLjq72H-WG-4" edge="1">
          <mxGeometry relative="1" as="geometry" />
        </mxCell>
        <mxCell id="kZnsoWwv7os6p9Z4obid-8" value="Отправить запрос" style="ellipse;whiteSpace=wrap;html=1;" parent="1" vertex="1">
          <mxGeometry x="330" y="-150" width="140" height="70" as="geometry" />
        </mxCell>
        <mxCell id="kZnsoWwv7os6p9Z4obid-10" value="Посмотреть страницу профиля" style="ellipse;whiteSpace=wrap;html=1;" parent="1" vertex="1">
          <mxGeometry x="20" y="400" width="140" height="70" as="geometry" />
        </mxCell>
        <mxCell id="kZnsoWwv7os6p9Z4obid-15" style="rounded=0;orthogonalLoop=1;jettySize=auto;html=1;exitX=0.5;exitY=0;exitDx=0;exitDy=0;entryX=0.5;entryY=1;entryDx=0;entryDy=0;endArrow=none;endFill=0;startArrow=open;startFill=0;" parent="1" source="kZnsoWwv7os6p9Z4obid-11" target="XNh-5hUBTrXLjq72H-WG-14" edge="1">
          <mxGeometry relative="1" as="geometry" />
        </mxCell>
        <mxCell id="kZnsoWwv7os6p9Z4obid-11" value="Войти, используя email и пароль" style="ellipse;whiteSpace=wrap;html=1;" parent="1" vertex="1">
          <mxGeometry x="490" y="70" width="140" height="70" as="geometry" />
        </mxCell>
        <mxCell id="HeYIOjHRtYzObJNVk6Ek-8" style="rounded=0;orthogonalLoop=1;jettySize=auto;html=1;entryX=1;entryY=1;entryDx=0;entryDy=0;endArrow=none;endFill=0;startArrow=open;startFill=0;" parent="1" source="kZnsoWwv7os6p9Z4obid-12" target="XNh-5hUBTrXLjq72H-WG-14" edge="1">
          <mxGeometry relative="1" as="geometry" />
        </mxCell>
        <mxCell id="kZnsoWwv7os6p9Z4obid-12" value="Войти, используя сторонние сервисы" style="ellipse;whiteSpace=wrap;html=1;" parent="1" vertex="1">
          <mxGeometry x="687" y="70" width="140" height="70" as="geometry" />
        </mxCell>
        <mxCell id="HeYIOjHRtYzObJNVk6Ek-11" style="rounded=0;orthogonalLoop=1;jettySize=auto;html=1;entryX=1;entryY=0.5;entryDx=0;entryDy=0;endArrow=none;endFill=0;startArrow=open;startFill=0;" parent="1" source="kZnsoWwv7os6p9Z4obid-13" target="XNh-5hUBTrXLjq72H-WG-14" edge="1">
          <mxGeometry relative="1" as="geometry" />
        </mxCell>
        <mxCell id="kZnsoWwv7os6p9Z4obid-13" value="Сбросить пароль" style="ellipse;whiteSpace=wrap;html=1;" parent="1" vertex="1">
          <mxGeometry x="687" y="-20" width="140" height="70" as="geometry" />
        </mxCell>
        <mxCell id="HeYIOjHRtYzObJNVk6Ek-1" value="&amp;lt;&amp;lt;extend&amp;gt;&amp;gt;" style="text;html=1;align=center;verticalAlign=middle;whiteSpace=wrap;rounded=0;" parent="1" vertex="1">
          <mxGeometry x="330" y="-330" width="60" height="30" as="geometry" />
        </mxCell>
        <mxCell id="HeYIOjHRtYzObJNVk6Ek-3" value="&amp;lt;&amp;lt;include&amp;gt;&amp;gt;" style="text;html=1;align=center;verticalAlign=middle;whiteSpace=wrap;rounded=0;" parent="1" vertex="1">
          <mxGeometry x="410" y="-200" width="60" height="30" as="geometry" />
        </mxCell>
        <mxCell id="HeYIOjHRtYzObJNVk6Ek-9" value="&amp;lt;&amp;lt;include&amp;gt;&amp;gt;" style="text;html=1;align=center;verticalAlign=middle;whiteSpace=wrap;rounded=0;" parent="1" vertex="1">
          <mxGeometry x="490" y="40" width="60" height="30" as="geometry" />
        </mxCell>
        <mxCell id="HeYIOjHRtYzObJNVk6Ek-12" value="&amp;lt;&amp;lt;extend&amp;gt;&amp;gt;" style="text;html=1;align=center;verticalAlign=middle;whiteSpace=wrap;rounded=0;" parent="1" vertex="1">
          <mxGeometry x="640" y="-35" width="60" height="30" as="geometry" />
        </mxCell>
        <mxCell id="HeYIOjHRtYzObJNVk6Ek-17" value="Используя логин, email и пароль" style="ellipse;whiteSpace=wrap;html=1;" parent="1" vertex="1">
          <mxGeometry x="-58.5" y="-400" width="140" height="70" as="geometry" />
        </mxCell>
        <mxCell id="HeYIOjHRtYzObJNVk6Ek-18" style="rounded=0;orthogonalLoop=1;jettySize=auto;html=1;entryX=0.5;entryY=0;entryDx=0;entryDy=0;endArrow=none;endFill=0;startArrow=open;startFill=0;" parent="1" source="HeYIOjHRtYzObJNVk6Ek-19" target="kZnsoWwv7os6p9Z4obid-2" edge="1">
          <mxGeometry relative="1" as="geometry" />
        </mxCell>
        <mxCell id="HeYIOjHRtYzObJNVk6Ek-19" value="Используя сторонние сервисы" style="ellipse;whiteSpace=wrap;html=1;" parent="1" vertex="1">
          <mxGeometry x="138.5" y="-400" width="140" height="70" as="geometry" />
        </mxCell>
        <mxCell id="HeYIOjHRtYzObJNVk6Ek-22" value="&amp;lt;&amp;lt;include&amp;gt;&amp;gt;" style="text;html=1;align=center;verticalAlign=middle;whiteSpace=wrap;rounded=0;" parent="1" vertex="1">
          <mxGeometry x="50" y="-330" width="60" height="30" as="geometry" />
        </mxCell>
        <mxCell id="HeYIOjHRtYzObJNVk6Ek-28" value="Ответ от работника поддержки" style="ellipse;whiteSpace=wrap;html=1;" parent="1" vertex="1">
          <mxGeometry x="540" y="-340" width="140" height="70" as="geometry" />
        </mxCell>
        <mxCell id="HeYIOjHRtYzObJNVk6Ek-29" value="Ответ от ИИ" style="ellipse;whiteSpace=wrap;html=1;" parent="1" vertex="1">
          <mxGeometry x="540" y="-430" width="140" height="70" as="geometry" />
        </mxCell>
        <mxCell id="HeYIOjHRtYzObJNVk6Ek-33" value="&amp;lt;&amp;lt;include&amp;gt;&amp;gt;" style="text;html=1;align=center;verticalAlign=middle;whiteSpace=wrap;rounded=0;" parent="1" vertex="1">
          <mxGeometry x="480" y="-290" width="60" height="30" as="geometry" />
        </mxCell>
        <mxCell id="HeYIOjHRtYzObJNVk6Ek-34" value="&amp;lt;&amp;lt;extend&amp;gt;&amp;gt;" style="text;html=1;align=center;verticalAlign=middle;whiteSpace=wrap;rounded=0;" parent="1" vertex="1">
          <mxGeometry x="470" y="-410" width="60" height="30" as="geometry" />
        </mxCell>
        <mxCell id="HeYIOjHRtYzObJNVk6Ek-41" style="edgeStyle=orthogonalEdgeStyle;rounded=0;orthogonalLoop=1;jettySize=auto;html=1;exitX=0;exitY=0.5;exitDx=0;exitDy=0;entryX=1;entryY=0.5;entryDx=0;entryDy=0;" parent="1" source="HeYIOjHRtYzObJNVk6Ek-40" target="kZnsoWwv7os6p9Z4obid-10" edge="1">
          <mxGeometry relative="1" as="geometry" />
        </mxCell>
        <mxCell id="HeYIOjHRtYzObJNVk6Ek-40" value="Посмотреть все свои запросы" style="ellipse;whiteSpace=wrap;html=1;" parent="1" vertex="1">
          <mxGeometry x="220" y="400" width="140" height="70" as="geometry" />
        </mxCell>
        <mxCell id="HeYIOjHRtYzObJNVk6Ek-49" style="rounded=0;orthogonalLoop=1;jettySize=auto;html=1;entryX=1;entryY=0.5;entryDx=0;entryDy=0;endArrow=open;endFill=0;" parent="1" source="HeYIOjHRtYzObJNVk6Ek-42" target="HeYIOjHRtYzObJNVk6Ek-47" edge="1">
          <mxGeometry relative="1" as="geometry" />
        </mxCell>
        <mxCell id="HeYIOjHRtYzObJNVk6Ek-56" style="rounded=0;orthogonalLoop=1;jettySize=auto;html=1;entryX=1;entryY=0.5;entryDx=0;entryDy=0;endArrow=open;endFill=0;" parent="1" source="HeYIOjHRtYzObJNVk6Ek-42" target="HeYIOjHRtYzObJNVk6Ek-52" edge="1">
          <mxGeometry relative="1" as="geometry" />
        </mxCell>
        <mxCell id="HeYIOjHRtYzObJNVk6Ek-42" value="Администратор" style="shape=umlActor;verticalLabelPosition=bottom;verticalAlign=top;html=1;" parent="1" vertex="1">
          <mxGeometry x="1000" y="380" width="30" height="60" as="geometry" />
        </mxCell>
        <mxCell id="HeYIOjHRtYzObJNVk6Ek-43" value="Редактирование и создание новостей" style="ellipse;whiteSpace=wrap;html=1;" parent="1" vertex="1">
          <mxGeometry x="650" y="350" width="140" height="70" as="geometry" />
        </mxCell>
        <mxCell id="HeYIOjHRtYzObJNVk6Ek-45" style="rounded=0;orthogonalLoop=1;jettySize=auto;html=1;entryX=1;entryY=0.5;entryDx=0;entryDy=0;endArrow=open;endFill=0;" parent="1" source="HeYIOjHRtYzObJNVk6Ek-44" target="HeYIOjHRtYzObJNVk6Ek-47" edge="1">
          <mxGeometry relative="1" as="geometry" />
        </mxCell>
        <mxCell id="HeYIOjHRtYzObJNVk6Ek-44" value="Редактор" style="shape=umlActor;verticalLabelPosition=bottom;verticalAlign=top;html=1;" parent="1" vertex="1">
          <mxGeometry x="1000" y="480" width="30" height="60" as="geometry" />
        </mxCell>
        <mxCell id="HeYIOjHRtYzObJNVk6Ek-51" style="edgeStyle=orthogonalEdgeStyle;rounded=0;orthogonalLoop=1;jettySize=auto;html=1;entryX=0.5;entryY=1;entryDx=0;entryDy=0;endArrow=none;endFill=0;startArrow=classic;startFill=1;" parent="1" source="HeYIOjHRtYzObJNVk6Ek-47" target="HeYIOjHRtYzObJNVk6Ek-43" edge="1">
          <mxGeometry relative="1" as="geometry" />
        </mxCell>
        <mxCell id="HeYIOjHRtYzObJNVk6Ek-47" value="Получить доступ к админ панели" style="ellipse;whiteSpace=wrap;html=1;" parent="1" vertex="1">
          <mxGeometry x="650" y="475" width="140" height="70" as="geometry" />
        </mxCell>
        <mxCell id="HeYIOjHRtYzObJNVk6Ek-50" style="rounded=0;orthogonalLoop=1;jettySize=auto;html=1;entryX=1;entryY=0.5;entryDx=0;entryDy=0;endArrow=open;endFill=0;" parent="1" source="HeYIOjHRtYzObJNVk6Ek-48" target="HeYIOjHRtYzObJNVk6Ek-47" edge="1">
          <mxGeometry relative="1" as="geometry" />
        </mxCell>
        <mxCell id="HeYIOjHRtYzObJNVk6Ek-57" style="rounded=0;orthogonalLoop=1;jettySize=auto;html=1;entryX=1;entryY=0.5;entryDx=0;entryDy=0;endArrow=open;endFill=0;" parent="1" source="HeYIOjHRtYzObJNVk6Ek-48" target="HeYIOjHRtYzObJNVk6Ek-52" edge="1">
          <mxGeometry relative="1" as="geometry" />
        </mxCell>
        <mxCell id="HeYIOjHRtYzObJNVk6Ek-48" value="Разработчик" style="shape=umlActor;verticalLabelPosition=bottom;verticalAlign=top;html=1;" parent="1" vertex="1">
          <mxGeometry x="1000" y="584.5" width="30" height="60" as="geometry" />
        </mxCell>
        <mxCell id="HeYIOjHRtYzObJNVk6Ek-53" style="edgeStyle=orthogonalEdgeStyle;rounded=0;orthogonalLoop=1;jettySize=auto;html=1;entryX=0.5;entryY=1;entryDx=0;entryDy=0;" parent="1" source="HeYIOjHRtYzObJNVk6Ek-52" target="HeYIOjHRtYzObJNVk6Ek-47" edge="1">
          <mxGeometry relative="1" as="geometry" />
        </mxCell>
        <mxCell id="HeYIOjHRtYzObJNVk6Ek-52" value="Редактирование и удаление пользователей" style="ellipse;whiteSpace=wrap;html=1;" parent="1" vertex="1">
          <mxGeometry x="650" y="600" width="140" height="70" as="geometry" />
        </mxCell>
        <mxCell id="Kt4BA5MkGd6uSF_apEy1-1" value="&amp;lt;&amp;lt;include&amp;gt;&amp;gt;" style="text;html=1;align=center;verticalAlign=middle;whiteSpace=wrap;rounded=0;" parent="1" vertex="1">
          <mxGeometry x="138.5" y="-330" width="60" height="30" as="geometry" />
        </mxCell>
        <mxCell id="Kt4BA5MkGd6uSF_apEy1-2" value="&amp;lt;&amp;lt;include&amp;gt;&amp;gt;" style="text;html=1;align=center;verticalAlign=middle;whiteSpace=wrap;rounded=0;" parent="1" vertex="1">
          <mxGeometry x="600" y="40" width="60" height="30" as="geometry" />
        </mxCell>
        <mxCell id="aFkFQPIpFqv8_GVL3Z5P-1" value="ИС" style="shape=umlFrame;whiteSpace=wrap;html=1;pointerEvents=0;" vertex="1" parent="1">
          <mxGeometry x="-70" y="-450" width="910" height="1140" as="geometry" />
        </mxCell>
      </root>
    </mxGraphModel>
  </diagram>
</mxfile>
